<?xml version="1.0" encoding="UTF-8"?><svg id="a" xmlns="http://www.w3.org/2000/svg" viewBox="0 0 1080 1080"><defs><style>.b{fill:#5f504d;}.c{fill:#b32572;}</style></defs><g><path class="b" d="M173.54,900.78l-84.4,178.27h-5.45L0,900.78H50.49l37.22,86.77,37.22-86.77h48.6Z"/><path class="b" d="M311.01,988.72c0-64.48,49.78-91.98,91.75-91.98s93.4,27.5,93.4,91.98-50.73,91.28-93.4,91.28-91.75-28.69-91.75-91.28Zm138.92,0c0-36.27-25.84-49.07-47.18-49.07s-45.52,12.8-45.52,49.07c0,34.38,23.94,48.13,45.52,48.13s47.18-13.75,47.18-48.13Z"/><path class="b" d="M748.84,983.51l63.54,92.46h-56.42l-50.49-81.32v81.32h-44.57v-175.19h44.57v74.44l52.15-74.44h54.76l-63.54,82.73Z"/><path class="b" d="M1080,1036.14v39.83h-115.22v-175.19h112.61v39.83h-68.75v24.65h65.19v39.35h-65.19v31.53h71.36Z"/></g><polygon class="c" points="893.52 0 540 516.15 186.47 0 0 0 0 21.86 540 758.77 1080 21.86 1080 0 893.52 0"/></svg>